<svg id="圖層_1" data-name="圖層 1" xmlns="http://www.w3.org/2000/svg" viewBox="0 0 687 346"><defs><style>.cls-1,.cls-6{fill:#fff;}.cls-1,.cls-5{stroke:#002d49;}.cls-1{stroke-width:0.21px;}.cls-2{fill:#e50012;}.cls-3{fill:#004da0;}.cls-4{fill:#002d49;}.cls-5{fill:none;stroke-width:0.05px;}</style></defs><title>工作區域 2</title><rect class="cls-1" x="2.59" y="1.89" width="682.41" height="341.2"/><path class="cls-2" d="M232.68,161.57S221.54,164.78,200,178c-19.31,11.89-26.88,19.87-26.88,19.87l-59.55-41.15s25.05-18.43,46-4.32l28.08,19.26,3.41-2.25-77.48-54.3s11.14-3.22,32.66-16.45c19.32-11.88,26.89-19.86,26.89-19.86L232.69,120s-25.05,18.43-46,4.32L158.62,105l-3.42,2.24Z"/><polygon class="cls-3" points="186.55 217.72 141.22 217.72 141.22 227.8 163.12 227.8 140.46 248.97 140.46 257.4 186.47 257.4 186.47 247.28 163.58 247.28 186.55 226.17 186.55 217.72"/><path class="cls-3" d="M114.54,258.44c18.14,0,22.77-4.65,22.77-14.85V217.72H122.94V242c0,4.1-3.49,6.53-8.4,6.53-5.11,0-8.4-2.44-8.4-6.57V217.72H91.78v25.87C91.78,253.79,96.42,258.44,114.54,258.44Z"/><path class="cls-3" d="M212.87,258.44c18.12,0,22.78-4.65,22.78-14.85V217.72H221.27V242c0,4.1-3.49,6.53-8.4,6.53-5.12,0-8.41-2.44-8.41-6.57V217.72H190.1v25.87C190.1,253.79,194.75,258.44,212.87,258.44Z"/><rect class="cls-3" x="292.36" y="217.72" width="14.97" height="39.68"/><polygon class="cls-3" points="290.07 217.72 270.37 217.72 254.43 231.41 254.43 217.72 239.46 217.72 239.46 257.4 254.43 257.4 254.43 243.34 269.24 257.4 289.36 257.4 267.46 237.05 290.07 217.72"/><path class="cls-3" d="M56.38,228.69c0-3.07,4.54-3.17,6.08-3.17A8.72,8.72,0,0,1,69.81,230H86.76c0-7.48-7.09-13.43-24.24-13.43-19.05,0-22.3,8.37-22.3,13.17,0,8.86,6.85,11.44,21.77,13,1.28.13,9-.24,9,3.5,0,2.76-4.36,2.93-6,2.93s-4.58-.24-7-4.64H39.36c0,8.72,5.88,13.75,25.66,13.75,18.24,0,23.07-7.45,23.07-13.11,0-5.48-3.77-11.06-19.32-13.05C62.29,231.32,56.38,231,56.38,228.69Z"/><rect class="cls-4" x="343.79" y="1.89" width="341.21" height="341.2"/><rect class="cls-5" x="343.79" y="1.89" width="341.21" height="341.2"/><polygon class="cls-6" points="435.13 149.08 430.74 190.19 420.11 190.19 417.43 156.22 414.63 190.19 404.25 190.19 399.84 149.08 408.01 149.08 410.13 182.75 412.92 149.08 422.45 149.08 425.13 182.65 427.59 149.08 435.13 149.08"/><path class="cls-6" d="M448,184.47v-9.64l-1.43.16c-1.72.18-2.46,1.85-2.46,5.14,0,4,.74,4.86,2,4.86A3.66,3.66,0,0,0,448,184.47Zm2.91,5.73-1.59-2.92a7.53,7.53,0,0,1-6.57,3.37c-4.11,0-6.74-2.52-6.74-9.49,0-5.59,1.89-10,8.68-10.66l3.32-.36v-2.28c0-3-.41-3.93-1.55-3.93s-1.54,1.47-1.65,3.76l-7.71-1.14c.74-3.38,2.85-8,9.93-8,6.57,0,9,3.37,9,10.79v20.9Z"/><path class="cls-6" d="M474.07,191c-1.32,6.1-4.29,8.56-8.84,8.56a12.44,12.44,0,0,1-4-.62v-5.72a10.77,10.77,0,0,0,2.81.47c1.54,0,2.63-.86,3-3.54h-2.63L458,159.36h8.75l2.62,24.44,3.59-24.44h8Z"/><path class="cls-6" d="M505.49,185.23c1.75,0,2.28-1.66,2.28-10.47s-.63-10.67-2.34-10.67-2.35,2-2.35,10.67S503.7,185.23,505.49,185.23Zm-.06-26.73c6.17,0,10.5,3.54,10.5,16.26s-4.33,16-10.5,16-10.56-3.37-10.56-16S499.25,158.5,505.42,158.5Z"/><path class="cls-6" d="M534,154.27a12.43,12.43,0,0,0-3.25-.57c-2,0-2.58.57-2.58,3v2.62h4.63v5.7H528.2v25.14h-8V165.06h-2.85v-5.7h2.85v-2.28c0-7.19,3.25-9.43,8.29-9.43a16.76,16.76,0,0,1,5.53.87Z"/><polygon class="cls-6" points="556 149.08 556 183.62 567.25 183.62 567.25 190.19 547.45 190.19 547.45 149.08 556 149.08"/><path class="cls-6" d="M569.37,190.19V159.36h8v30.84Zm-.3-34.84v-7.13h8.68v7.13Z"/><path class="cls-6" d="M596.14,154.27a12.37,12.37,0,0,0-3.25-.57c-2,0-2.58.57-2.58,3v2.62h4.63v5.7h-4.63v25.14h-8V165.06h-2.85v-5.7h2.85v-2.28c0-7.19,3.26-9.43,8.28-9.43a16.73,16.73,0,0,1,5.54.87Z"/><path class="cls-6" d="M603.92,171.86h4.16c-.05-7-.62-8.22-2-8.22S604,164.73,603.92,171.86Zm4.11,9.3,7.31,1.16c-.46,3.41-2.91,8.44-9.43,8.44-7,0-10-4.91-10-16,0-12,3.14-16.26,9.93-16.26,9.14,0,9.59,7,9.59,18.61H603.92c.11,6.91.73,7.88,2.17,7.88C607.28,185,607.79,183.62,608,181.16Z"/><path class="cls-6" d="M619.79,176.48l-.86-27.4h8.33l-.85,27.4Zm-1,13.71v-8h8.57v8Z"/></svg>